<svg width="48" height="48" viewBox="0 0 48 48" fill="none" xmlns="http://www.w3.org/2000/svg">
<path d="M24 45C27 45 25 47 31 47C37 47 43 35 43 27C43 19 38 13 32 13C26 13 26 15 24 15C22 15 22 13 16 13C10 13 5 19 5 27C5 35 11 47 17 47C23 47 21 45 24 45Z" stroke="black" stroke-width="2" stroke-linecap="round" stroke-linejoin="round"/>
<path d="M24 15V11C23.9968 9.94011 23.5744 8.92453 22.8249 8.17507C22.0755 7.42561 21.0599 7.00317 20 7H16" stroke="black" stroke-width="2" stroke-linecap="round" stroke-linejoin="round"/>
<path d="M29.256 9.83599C31.1904 9.56383 32.9838 8.66968 34.3653 7.28856C35.7467 5.90744 36.6414 4.11433 36.914 2.17999C36.9368 2.02105 36.9222 1.85901 36.8714 1.70668C36.8206 1.55436 36.7351 1.41595 36.6216 1.30242C36.5081 1.18889 36.3696 1.10336 36.2173 1.0526C36.065 1.00185 35.903 0.987257 35.744 1.00999C33.8097 1.28266 32.0166 2.17727 30.6354 3.55876C29.2543 4.94024 28.3602 6.73359 28.088 8.66799C28.0648 8.82675 28.0791 8.98872 28.1296 9.14101C28.1801 9.29329 28.2654 9.43167 28.3789 9.54512C28.4923 9.65857 28.6307 9.74394 28.783 9.79444C28.9353 9.84494 29.0973 9.85917 29.256 9.83599Z" stroke="black" stroke-width="2" stroke-linecap="round" stroke-linejoin="round"/>
</svg>
