<svg width="48" height="48" viewBox="0 0 48 48" fill="none" xmlns="http://www.w3.org/2000/svg">
<g clip-path="url(#clip0_1210_3355)">
<path d="M35 37H41.288C42.3093 36.9578 43.2725 36.5137 43.9678 35.7645C44.6631 35.0153 45.0341 34.0216 45 33V27C44.9968 25.9401 44.5744 24.9245 43.8249 24.1751C43.0755 23.4256 42.0599 23.0032 41 23H35" stroke="black" stroke-width="2" stroke-linecap="round" stroke-linejoin="round"/>
<path d="M38 44C38 44.7956 37.6839 45.5587 37.1213 46.1213C36.5587 46.6839 35.7956 47 35 47H11C10.2044 47 9.44129 46.6839 8.87868 46.1213C8.31607 45.5587 8 44.7956 8 44C8.00264 43.2052 8.31955 42.4436 8.88159 41.8816C9.44363 41.3196 10.2052 41.0026 11 41H35C35.7948 41.0026 36.5564 41.3196 37.1184 41.8816C37.6804 42.4436 37.9974 43.2052 38 44Z" stroke="black" stroke-width="2" stroke-linecap="round" stroke-linejoin="round"/>
<path d="M11 31V41" stroke="black" stroke-width="2" stroke-linecap="round" stroke-linejoin="round"/>
<path d="M35 41L35.002 19" stroke="black" stroke-width="2" stroke-linecap="round" stroke-linejoin="round"/>
<path d="M29 24V37" stroke="black" stroke-width="2" stroke-linecap="round" stroke-linejoin="round"/>
<path d="M23 30V37" stroke="black" stroke-width="2" stroke-linecap="round" stroke-linejoin="round"/>
<path d="M17 32V37" stroke="black" stroke-width="2" stroke-linecap="round" stroke-linejoin="round"/>
<path d="M35 7.00001C34.0505 5.1769 32.6156 3.65164 30.8538 2.59262C29.0921 1.5336 27.0719 0.982024 25.0164 0.998784C22.9609 1.01554 20.95 1.59999 19.2058 2.68759C17.4615 3.7752 16.0517 5.32366 15.132 7.16201C14.076 6.52078 12.8859 6.13283 11.6549 6.02858C10.4238 5.92432 9.18539 6.10659 8.0366 6.56109C6.88781 7.0156 5.8599 7.72999 5.03343 8.64827C4.20697 9.56655 3.6044 10.6638 3.27298 11.8539C2.94155 13.0441 2.89027 14.2948 3.12316 15.5081C3.35604 16.7213 3.86676 17.8642 4.61528 18.8471C5.36379 19.8299 6.32978 20.6261 7.4375 21.1731C8.54522 21.7201 9.76459 22.0031 11 22C11 23.5913 11.6322 25.1174 12.7574 26.2427C13.8826 27.3679 15.4087 28 17 28C18.5913 28 20.1174 27.3679 21.2427 26.2427C22.3679 25.1174 23 23.5913 23 22V21C23 20.4696 23.2107 19.9609 23.5858 19.5858C23.9609 19.2107 24.4696 19 25 19H35C36.5913 19 38.1174 18.3679 39.2427 17.2427C40.3679 16.1174 41 14.5913 41 13C41 11.4087 40.3679 9.88259 39.2427 8.75737C38.1174 7.63216 36.5913 7.00001 35 7.00001Z" stroke="black" stroke-width="2" stroke-linecap="round" stroke-linejoin="round"/>
</g>
<defs>
<clipPath id="clip0_1210_3355">
<rect width="48" height="48" fill="white"/>
</clipPath>
</defs>
</svg>
