<svg width="48" height="48" viewBox="0 0 48 48" fill="none" xmlns="http://www.w3.org/2000/svg">
<g clip-path="url(#clip0_1210_3204)">
<path d="M10.66 29.24C5.45999 27.64 5.37999 21 2.65999 21C-0.0600111 21 -1.09673e-05 32.88 6.23999 39.82" stroke="black" stroke-width="2" stroke-linecap="round" stroke-linejoin="round"/>
<path d="M17.84 30.78L11.84 28.94C11.5032 28.8527 11.1461 28.892 10.8364 29.0505C10.5268 29.2091 10.286 29.4757 10.16 29.8L6.15999 38.52C5.99531 38.8819 5.95505 39.288 6.0455 39.6752C6.13595 40.0623 6.35202 40.4086 6.65999 40.66C8.8117 42.2861 11.3341 43.3514 14 43.76" stroke="black" stroke-width="2" stroke-linecap="round" stroke-linejoin="round"/>
<path d="M37.34 29.24C42.54 27.64 42.62 21 45.34 21C48.06 21 48.08 32.88 41.82 39.82" stroke="black" stroke-width="2" stroke-linecap="round" stroke-linejoin="round"/>
<path d="M30.16 30.78L36.16 28.94C36.4967 28.8527 36.8538 28.892 37.1635 29.0505C37.4732 29.2091 37.7139 29.4757 37.84 29.8L41.84 38.52C42.0047 38.8819 42.0449 39.288 41.9545 39.6752C41.864 40.0623 41.6479 40.4086 41.34 40.66C39.1883 42.2861 36.6659 43.3514 34 43.76" stroke="black" stroke-width="2" stroke-linecap="round" stroke-linejoin="round"/>
<path d="M34 43.12L30.34 31.12C30.2698 30.8016 30.0965 30.5154 29.847 30.3056C29.5975 30.0958 29.2857 29.9743 28.96 29.96H19.1C18.7743 29.9743 18.4625 30.0958 18.213 30.3056C17.9635 30.5154 17.7902 30.8016 17.72 31.12L14 43.12C13.8961 43.5037 13.9268 43.9114 14.0869 44.2753C14.247 44.6392 14.5269 44.9373 14.88 45.12C17.7461 46.3345 20.8272 46.9604 23.94 46.9604C27.0528 46.9604 30.1339 46.3345 33 45.12C33.3751 44.9572 33.6809 44.6676 33.8638 44.3019C34.0467 43.9361 34.0949 43.5177 34 43.12Z" stroke="black" stroke-width="2" stroke-linecap="round" stroke-linejoin="round"/>
<path d="M14 26V14C14 13.7348 14.1054 13.4804 14.2929 13.2929C14.4804 13.1054 14.7348 13 15 13H33V26" stroke="black" stroke-width="2" stroke-linecap="round" stroke-linejoin="round"/>
<path d="M33 13H36C37.0609 13 38.0783 13.4214 38.8284 14.1716C39.5786 14.9217 40 15.9391 40 17C40 18.0609 39.5786 19.0783 38.8284 19.8284C38.0783 20.5786 37.0609 21 36 21H33" stroke="black" stroke-width="2" stroke-linecap="round" stroke-linejoin="round"/>
<path d="M19.86 1C16.86 4 22.86 6 19.86 9" stroke="black" stroke-width="2" stroke-linecap="round" stroke-linejoin="round"/>
<path d="M26.86 1C23.86 4 29.86 6 26.86 9" stroke="black" stroke-width="2" stroke-linecap="round" stroke-linejoin="round"/>
</g>
<defs>
<clipPath id="clip0_1210_3204">
<rect width="48" height="48" fill="white"/>
</clipPath>
</defs>
</svg>
