<svg width="48" height="48" viewBox="0 0 48 48" fill="none" xmlns="http://www.w3.org/2000/svg">
<g clip-path="url(#clip0_1210_3406)">
<path d="M19.9599 11.4025C18.6366 11.4025 17.3675 10.8768 16.4318 9.94106C15.496 9.00534 14.9703 7.73622 14.9703 6.4129C14.9703 5.0896 15.496 3.82048 16.4318 2.88476C17.3675 1.94903 18.6366 1.42334 19.9599 1.42334H41.914C43.2374 1.42334 44.5064 1.94903 45.4422 2.88476C46.378 3.82048 46.9036 5.0896 46.9036 6.4129C46.9036 7.73622 46.378 9.00534 45.4422 9.94106C44.5064 10.8768 43.2374 11.4025 41.914 11.4025H19.9599Z" stroke="black" stroke-width="2" stroke-linecap="round" stroke-linejoin="round"/>
<path d="M22.2152 1.56311L25.9674 5.2953" stroke="black" stroke-width="2" stroke-linecap="round" stroke-linejoin="round"/>
<path d="M29.041 1.42334L32.9328 5.29524" stroke="black" stroke-width="2" stroke-linecap="round" stroke-linejoin="round"/>
<path d="M36.0064 1.42334L39.8982 5.29524" stroke="black" stroke-width="2" stroke-linecap="round" stroke-linejoin="round"/>
<path d="M24.9496 27.2691C24.9692 29.6417 24.2838 31.9667 22.98 33.9491C21.6764 35.9315 19.8131 37.4819 17.6267 38.4035C15.4404 39.3251 13.0296 39.5767 10.7001 39.1259C8.37068 38.6751 6.22762 37.5427 4.5429 35.8719C2.85816 34.2013 1.70771 32.0677 1.23751 29.7421C0.767308 27.4165 0.998552 25.0037 1.9019 22.8097C2.80526 20.6157 4.33998 18.7396 6.31136 17.4193C8.28274 16.0991 10.6019 15.3941 12.9746 15.3941H23.9516C25.5396 15.2617 27.115 15.7656 28.3316 16.7949C29.548 17.8242 30.3058 19.2946 30.438 20.8825C30.5704 22.4705 30.0664 24.0461 29.0372 25.2625C28.0078 26.4789 26.5374 27.2367 24.9496 27.3689V27.2691Z" stroke="black" stroke-width="2" stroke-linecap="round" stroke-linejoin="round"/>
<path d="M12.9746 33.3566C16.2813 33.3566 18.962 30.6758 18.962 27.369C18.962 24.0622 16.2813 21.3816 12.9746 21.3816C9.66776 21.3816 6.98706 24.0622 6.98706 27.369C6.98706 30.6758 9.66776 33.3566 12.9746 33.3566Z" stroke="black" stroke-width="2" stroke-linecap="round" stroke-linejoin="round"/>
<path d="M30.478 44.2738C30.2964 42.9056 30.6654 41.5214 31.5036 40.425C32.3418 39.3286 33.5808 38.6096 34.9486 38.426C36.3164 38.2422 37.5554 37.5234 38.3936 36.427C39.2318 35.3306 39.6008 33.9462 39.4192 32.5782C39.3296 31.9004 39.375 31.2116 39.5524 30.5514C39.7298 29.8912 40.036 29.2724 40.4532 28.7308C40.8706 28.1894 41.3908 27.7356 41.984 27.3956C42.5772 27.0558 43.2316 26.8366 43.9098 26.7504" stroke="black" stroke-width="2" stroke-linecap="round" stroke-linejoin="round"/>
<path d="M33.2122 46.3494C33.3572 46.4624 33.5288 46.5362 33.7104 46.5642C33.892 46.5922 34.0778 46.5732 34.25 46.509C34.424 46.451 34.5798 46.3488 34.7022 46.2122C34.8248 46.0758 34.9096 45.9098 34.9486 45.7308C35.1898 44.6988 35.7388 43.7646 36.523 43.0518C37.307 42.3388 38.2892 41.8812 39.3394 41.739C40.7098 41.5788 41.9606 40.8816 42.8176 39.8002C43.6744 38.719 44.0672 37.3418 43.9098 35.9712C43.7754 34.97 43.9362 33.9514 44.3722 33.0402C44.8082 32.1292 45.5008 31.365 46.3648 30.8418C46.546 30.7342 46.6982 30.5842 46.8084 30.4046C46.9186 30.225 46.9834 30.0212 46.9972 29.8108C47.011 29.6006 46.9734 29.3902 46.8874 29.1976C46.8016 29.0052 46.6702 28.8366 46.5044 28.7064L39.9182 23.7566C39.7676 23.6388 39.5934 23.5548 39.4076 23.51C39.2216 23.4652 39.0282 23.4608 38.8404 23.4972C37.604 23.8094 36.5258 24.566 35.8116 25.6224C35.0974 26.679 34.7974 27.9616 34.9686 29.2252C35.15 30.5934 34.7812 31.9776 33.943 33.074C33.1048 34.1704 31.8658 34.8894 30.498 35.073C29.2232 35.2402 28.0552 35.8728 27.219 36.849C26.3826 37.8254 25.9368 39.0766 25.9674 40.362C25.9762 40.525 26.0198 40.6842 26.0956 40.8288C26.1714 40.9736 26.2774 41.1002 26.4064 41.2002L33.2122 46.3494Z" stroke="black" stroke-width="2" stroke-linecap="round" stroke-linejoin="round"/>
<path d="M10.9787 26.8702C10.7031 26.8702 10.4797 26.6468 10.4797 26.3712C10.4797 26.0956 10.7031 25.8722 10.9787 25.8722" stroke="black" stroke-width="2"/>
<path d="M10.9787 26.8702C11.2543 26.8702 11.4777 26.6468 11.4777 26.3712C11.4777 26.0956 11.2543 25.8722 10.9787 25.8722" stroke="black" stroke-width="2"/>
</g>
<defs>
<clipPath id="clip0_1210_3406">
<rect width="48" height="48" fill="white"/>
</clipPath>
</defs>
</svg>
