<svg width="48" height="48" viewBox="0 0 48 48" fill="none" xmlns="http://www.w3.org/2000/svg">
<path d="M25 23.96L27 42" stroke="black" stroke-width="2" stroke-linecap="round" stroke-linejoin="round"/>
<path d="M7.04001 23.56C5.28409 22.9868 3.75616 21.8697 2.67746 20.3703C1.59875 18.8709 1.02526 17.067 1.04001 15.22C1.04523 12.7832 2.01282 10.4472 3.73214 8.72036C5.45145 6.99355 7.78328 6.01582 10.22 6H23.78C26.2237 6.00528 28.5658 6.97837 30.2937 8.70631C32.0216 10.4343 32.9947 12.7763 33 15.22C33.0125 17.4166 32.1956 19.5371 30.7124 21.1574C29.2292 22.7778 27.1892 23.7787 25 23.96" stroke="black" stroke-width="2" stroke-linecap="round" stroke-linejoin="round"/>
<path d="M38 24C40.3869 24 42.6761 23.0518 44.364 21.364C46.0518 19.6761 47 17.3869 47 15C47 12.6131 46.0518 10.3239 44.364 8.63604C42.6761 6.94821 40.3869 6 38 6H22" stroke="black" stroke-width="2" stroke-linecap="round" stroke-linejoin="round"/>
<path d="M7.04 23.56L5.32 39.72C5.27967 40.0052 5.30139 40.2956 5.38368 40.5716C5.46596 40.8476 5.60688 41.1025 5.79677 41.319C5.98667 41.5355 6.22108 41.7084 6.48398 41.8259C6.74687 41.9435 7.03205 42.0029 7.32 42H41C41.2873 42.0025 41.5718 41.9431 41.8341 41.8257C42.0964 41.7084 42.3304 41.5359 42.52 41.32C42.7071 41.102 42.845 40.8463 42.9244 40.5702C43.0038 40.2941 43.0227 40.0041 42.98 39.72L41.24 23.4" stroke="black" stroke-width="2" stroke-linecap="round" stroke-linejoin="round"/>
</svg>
