<svg width="48" height="48" viewBox="0 0 48 48" fill="none" xmlns="http://www.w3.org/2000/svg">
<g clip-path="url(#clip0_1210_3174)">
<path d="M17.1255 32.8386L30.8746 42.188C31.455 42.5662 32.151 42.7264 32.8386 42.6396C33.4976 42.5692 34.1034 42.2452 34.5278 41.7362L41.6772 32.8386" stroke="black" stroke-width="2" stroke-linecap="round" stroke-linejoin="round"/>
<path d="M28.7336 40.6952H5.34074C4.2989 40.6952 3.29974 40.2812 2.56304 39.5446C1.82635 38.808 1.41248 37.8088 1.41248 36.7668C1.41248 35.725 1.82635 34.7258 2.56304 33.9892C3.29974 33.2524 4.2989 32.8386 5.34074 32.8386H42.6594C43.7012 32.8386 44.7004 33.2524 45.437 33.9892C46.1738 34.7258 46.5876 35.725 46.5876 36.7668C46.5876 37.8088 46.1738 38.808 45.437 39.5446C44.7004 40.2812 43.7012 40.6952 42.6594 40.6952H35.4314" stroke="black" stroke-width="2" stroke-linecap="round" stroke-linejoin="round"/>
<path d="M5.3407 32.8386C4.29886 32.9428 3.2583 32.6288 2.44794 31.9658C1.63758 31.3028 1.12379 30.345 1.0196 29.3032C0.915421 28.2614 1.22937 27.2208 1.8924 26.4104C2.55542 25.6 3.5132 25.0862 4.55504 24.982" stroke="black" stroke-width="2" stroke-linecap="round" stroke-linejoin="round"/>
<path d="M43.445 25.0606C44.4868 25.1648 45.4446 25.6786 46.1076 26.489C46.7706 27.2994 47.0846 28.3398 46.9804 29.3818C46.8762 30.4236 46.3624 31.3814 45.552 32.0444C44.7418 32.7074 43.7012 33.0214 42.6594 32.9172" stroke="black" stroke-width="2" stroke-linecap="round" stroke-linejoin="round"/>
<path d="M5.3407 40.6952V42.6592C5.3407 43.7012 5.75456 44.7002 6.49126 45.437C7.22796 46.1736 8.22712 46.5876 9.26898 46.5876H38.731C39.7728 46.5876 40.772 46.1736 41.5088 45.437C42.2454 44.7002 42.6592 43.7012 42.6592 42.6592V40.6952" stroke="black" stroke-width="2" stroke-linecap="round" stroke-linejoin="round"/>
<path d="M42.6592 19.0896C42.6592 8.77792 34.3118 1.41241 24 1.41241C13.6883 1.41241 5.3407 8.77792 5.3407 19.0896H42.6592Z" stroke="black" stroke-width="2" stroke-linecap="round" stroke-linejoin="round"/>
<path d="M5.34073 19.0897C4.57743 19.1444 3.85945 19.4724 3.31833 20.0134C2.77723 20.5546 2.44925 21.2726 2.39453 22.0358C2.39453 24.3142 4.90861 26.6124 8.28693 24C8.74881 24.9004 9.45353 25.6536 10.3214 26.1744C11.1892 26.695 12.1854 26.9624 13.1973 26.9462C14.2252 27.0588 15.2618 26.8318 16.1485 26.2998C17.0352 25.7678 17.7233 24.96 18.1076 24C18.7108 24.9978 19.5845 25.8044 20.6274 26.3258C21.6704 26.8472 22.8398 27.0624 24 26.9462C25.1602 27.0624 26.3296 26.8472 27.3726 26.3258C28.4154 25.8044 29.2892 24.9978 29.8924 24C30.2768 24.96 30.9648 25.7678 31.8516 26.2998C32.7382 26.8318 33.7748 27.0588 34.8028 26.9462C35.8146 26.9624 36.811 26.695 37.6788 26.1744C38.5466 25.6536 39.2512 24.9004 39.7132 24C43.0914 26.632 45.6056 24.334 45.6056 22.0358C45.5508 21.2726 45.2228 20.5546 44.6818 20.0134C44.1406 19.4724 43.4226 19.1444 42.6594 19.0897" stroke="black" stroke-width="2" stroke-linecap="round" stroke-linejoin="round"/>
<path d="M14.1793 11.351C13.9081 11.351 13.6883 11.1311 13.6883 10.8599C13.6883 10.5887 13.9081 10.3689 14.1793 10.3689" stroke="black" stroke-width="2"/>
<path d="M14.1793 11.351C14.4505 11.351 14.6703 11.1311 14.6703 10.8599C14.6703 10.5887 14.4505 10.3689 14.1793 10.3689" stroke="black" stroke-width="2"/>
<path d="M33.8206 11.351C33.5494 11.351 33.3296 11.1311 33.3296 10.8599C33.3296 10.5887 33.5494 10.3689 33.8206 10.3689" stroke="black" stroke-width="2"/>
<path d="M33.8206 11.351C34.0918 11.351 34.3118 11.1311 34.3118 10.8599C34.3118 10.5887 34.0918 10.3689 33.8206 10.3689" stroke="black" stroke-width="2"/>
<path d="M19.0897 8.40475C18.8185 8.40475 18.5986 8.18491 18.5986 7.91371C18.5986 7.64253 18.8185 7.42267 19.0897 7.42267" stroke="black" stroke-width="2"/>
<path d="M19.0897 8.40475C19.3608 8.40475 19.5807 8.18491 19.5807 7.91371C19.5807 7.64253 19.3608 7.42267 19.0897 7.42267" stroke="black" stroke-width="2"/>
<path d="M28.9104 8.40475C28.6392 8.40475 28.4194 8.18491 28.4194 7.91371C28.4194 7.64253 28.6392 7.42267 28.9104 7.42267" stroke="black" stroke-width="2"/>
<path d="M28.9104 8.40475C29.1816 8.40475 29.4014 8.18491 29.4014 7.91371C29.4014 7.64253 29.1816 7.42267 28.9104 7.42267" stroke="black" stroke-width="2"/>
<path d="M24 11.351C23.7288 11.351 23.509 11.1311 23.509 10.8599C23.509 10.5887 23.7288 10.3689 24 10.3689" stroke="black" stroke-width="2"/>
<path d="M24 11.351C24.2712 11.351 24.491 11.1311 24.491 10.8599C24.491 10.5887 24.2712 10.3689 24 10.3689" stroke="black" stroke-width="2"/>
</g>
<defs>
<clipPath id="clip0_1210_3174">
<rect width="48" height="48" fill="white"/>
</clipPath>
</defs>
</svg>
