<svg width="48" height="48" viewBox="0 0 48 48" fill="none" xmlns="http://www.w3.org/2000/svg">
<path d="M24 30.5C28 16.5 47 16.5 47 16.5V21.5C47 27.6 44.5768 33.4501 40.2635 37.7635C35.9501 42.0768 30.1 44.5 24 44.5C17.9 44.5 12.0499 42.0768 7.73654 37.7635C3.42321 33.4501 1 27.6 1 21.5V16.5C1 16.5 31.156 16.5 23.484 44.5" stroke="black" stroke-width="2" stroke-linecap="round" stroke-linejoin="round"/>
<path d="M42.894 16.862C42.9647 16.2171 43.0001 15.5688 43 14.92V10.88C43 10.88 27.62 9.08 24 19.024C20.38 9.072 5 10.88 5 10.88V14.92C4.99992 15.5688 5.0353 16.2171 5.106 16.862" stroke="black" stroke-width="2" stroke-linecap="round" stroke-linejoin="round"/>
<path d="M36.946 10.92C35.6236 8.66041 33.7329 6.78629 31.4617 5.48393C29.1906 4.18158 26.6181 3.49634 24 3.49634C21.3819 3.49634 18.8095 4.18158 16.5383 5.48393C14.2671 6.78629 12.3764 8.66041 11.054 10.92" stroke="black" stroke-width="2" stroke-linecap="round" stroke-linejoin="round"/>
<path d="M7.00001 36.986C7.00001 36.986 0.886011 28.816 9.44601 23.144" stroke="black" stroke-width="2" stroke-linecap="round" stroke-linejoin="round"/>
<path d="M15.258 42.78C15.258 42.78 9.19998 34.564 17.75 28.892" stroke="black" stroke-width="2" stroke-linecap="round" stroke-linejoin="round"/>
<path d="M41.014 36.986C41.014 36.986 47.122 28.816 38.562 23.144" stroke="black" stroke-width="2" stroke-linecap="round" stroke-linejoin="round"/>
<path d="M32.75 42.78C32.75 42.78 38.818 34.564 30.258 28.892" stroke="black" stroke-width="2" stroke-linecap="round" stroke-linejoin="round"/>
<path d="M26.446 3.70398C24.5254 5.14902 23.1216 7.17444 22.4425 9.48001C21.7635 11.7856 21.8453 14.2486 22.676 16.504" stroke="black" stroke-width="2" stroke-linecap="round" stroke-linejoin="round"/>
</svg>
