<svg width="48" height="48" viewBox="0 0 48 48" fill="none" xmlns="http://www.w3.org/2000/svg">
<g clip-path="url(#clip0_1210_3130)">
<path d="M1.50797 33.85C1.32602 33.963 1.18209 34.1278 1.09472 34.3234C1.00735 34.5189 0.980557 34.7361 1.01779 34.947C1.05502 35.158 1.15457 35.3529 1.30361 35.5067C1.45265 35.6605 1.64434 35.7661 1.85397 35.81C3.04819 35.9588 4.14531 36.5436 4.93457 37.4521C5.72383 38.3606 6.14956 39.5287 6.12997 40.732C6.11996 40.884 6.14253 41.0364 6.19618 41.179C6.24983 41.3217 6.33331 41.4512 6.44105 41.5589C6.54879 41.6666 6.6783 41.7501 6.8209 41.8038C6.96351 41.8574 7.11593 41.88 7.26797 41.87C8.47285 41.8483 9.64316 42.2731 10.5537 43.0625C11.4642 43.8519 12.0506 44.9502 12.2 46.146C12.2438 46.3556 12.3495 46.5473 12.5033 46.6963C12.6571 46.8454 12.852 46.9449 13.0629 46.9822C13.2738 47.0194 13.491 46.9926 13.6866 46.9052C13.8821 46.8179 14.047 46.6739 14.16 46.492C16.56 42.606 19.506 36.152 15.682 32.328C11.858 28.504 5.39997 31.452 1.50797 33.85Z" stroke="black" stroke-width="2" stroke-linecap="round" stroke-linejoin="round"/>
<path d="M33.85 1.50803C33.963 1.32608 34.1279 1.18215 34.3234 1.09478C34.519 1.00741 34.7362 0.980618 34.9471 1.01785C35.158 1.05508 35.3529 1.15463 35.5067 1.30367C35.6605 1.45271 35.7662 1.6444 35.81 1.85403C35.9588 3.04825 36.5437 4.14537 37.4521 4.93463C38.3606 5.72389 39.5287 6.14962 40.732 6.13003C40.8841 6.12002 41.0365 6.14259 41.1791 6.19624C41.3217 6.24989 41.4512 6.33337 41.559 6.44111C41.6667 6.54885 41.7502 6.67836 41.8038 6.82096C41.8575 6.96357 41.88 7.11599 41.87 7.26803C41.8484 8.47291 42.2732 9.64322 43.0626 10.5537C43.852 11.4643 44.9503 12.0506 46.146 12.2C46.3557 12.2439 46.5474 12.3495 46.6964 12.5033C46.8454 12.6571 46.945 12.8521 46.9822 13.063C47.0195 13.2739 46.9927 13.4911 46.9053 13.6866C46.8179 13.8822 46.674 14.0471 46.492 14.16C42.606 16.56 36.152 19.506 32.328 15.682C28.504 11.858 31.452 5.40003 33.85 1.50803Z" stroke="black" stroke-width="2" stroke-linecap="round" stroke-linejoin="round"/>
<path d="M12.222 24C12.222 27.1237 13.4629 30.1195 15.6717 32.3283C17.8805 34.5371 20.8763 35.778 24 35.778C27.1237 35.778 30.1195 34.5371 32.3283 32.3283C34.5371 30.1195 35.778 27.1237 35.778 24C35.778 20.8763 34.5371 17.8805 32.3283 15.6717C30.1195 13.4629 27.1237 12.222 24 12.222C20.8763 12.222 17.8805 13.4629 15.6717 15.6717C13.4629 17.8805 12.222 20.8763 12.222 24Z" stroke="black" stroke-width="2" stroke-linecap="round" stroke-linejoin="round"/>
<path d="M35.73 25.074C32.4468 27.8389 28.2924 29.3552 24 29.3552C19.7076 29.3552 15.5532 27.8389 12.27 25.074" stroke="black" stroke-width="2" stroke-linecap="round" stroke-linejoin="round"/>
<path d="M34.022 17.786C31.0504 19.7426 27.571 20.7865 24.0131 20.7889C20.4552 20.7914 16.9744 19.7524 14 17.8" stroke="black" stroke-width="2" stroke-linecap="round" stroke-linejoin="round"/>
</g>
<defs>
<clipPath id="clip0_1210_3130">
<rect width="48" height="48" fill="white"/>
</clipPath>
</defs>
</svg>
