<svg width="48" height="48" viewBox="0 0 48 48" fill="none" xmlns="http://www.w3.org/2000/svg">
<path d="M12.704 33.08L7.59998 45.036" stroke="black" stroke-width="2" stroke-linecap="round" stroke-linejoin="round"/>
<path d="M3 43.0718L12.198 46.9998" stroke="black" stroke-width="2" stroke-linecap="round" stroke-linejoin="round"/>
<path d="M14.126 11.9399L27 17.4399" stroke="black" stroke-width="2" stroke-linecap="round" stroke-linejoin="round"/>
<path d="M8.49203 22.5822L18.936 3.02621C19.054 2.80581 19.2502 2.63759 19.486 2.55467C19.7218 2.47175 19.9801 2.48015 20.21 2.57821L29.56 6.57821C29.7896 6.67673 29.974 6.85761 30.0768 7.08525C30.1798 7.31287 30.1938 7.57079 30.116 7.80821L23.2 28.8682C22.3484 30.7918 20.7732 32.3026 18.8159 33.0734C16.8584 33.844 14.6761 33.8128 12.7416 32.9862C10.8071 32.1596 9.27599 30.6044 8.47987 28.657C7.68375 26.7098 7.68667 24.5274 8.48803 22.5822H8.49203Z" stroke="black" stroke-width="2" stroke-linecap="round" stroke-linejoin="round"/>
<path d="M37.926 32.4282L40.068 45.2502" stroke="black" stroke-width="2" stroke-linecap="round" stroke-linejoin="round"/>
<path d="M45 44.4258L35.136 46.0738" stroke="black" stroke-width="2" stroke-linecap="round" stroke-linejoin="round"/>
<path d="M41.536 11.5479L32.954 12.9819" stroke="black" stroke-width="2" stroke-linecap="round" stroke-linejoin="round"/>
<path d="M28.718 25.8538C28.891 26.8902 29.2666 27.8822 29.823 28.7732C30.3794 29.6644 31.106 30.4372 31.9612 31.0476C32.8164 31.658 33.7832 32.094 34.807 32.3306C35.8306 32.5672 36.8908 32.6 37.927 32.4268C38.9632 32.2538 39.9552 31.8782 40.8464 31.3218C41.7376 30.7654 42.5104 30.0388 43.1208 29.1836C43.731 28.3286 44.167 27.3616 44.4036 26.338C44.6404 25.3144 44.673 24.2542 44.5 23.2178L38.966 1.74984C38.9034 1.5075 38.7522 1.29745 38.5422 1.16119C38.3322 1.02492 38.0788 0.972345 37.832 1.01384L30.02 2.31984" stroke="black" stroke-width="2" stroke-linecap="round" stroke-linejoin="round"/>
<path d="M16.604 19C16.3279 19 16.104 18.7761 16.104 18.5C16.104 18.2239 16.3279 18 16.604 18" stroke="black" stroke-width="2"/>
<path d="M16.604 19C16.8801 19 17.104 18.7761 17.104 18.5C17.104 18.2239 16.8801 18 16.604 18" stroke="black" stroke-width="2"/>
<path d="M34.5 18.8618C34.2238 18.8618 34 18.638 34 18.3618C34 18.0857 34.2238 17.8618 34.5 17.8618" stroke="black" stroke-width="2"/>
<path d="M34.5 18.8618C34.7762 18.8618 35 18.638 35 18.3618C35 18.0857 34.7762 17.8618 34.5 17.8618" stroke="black" stroke-width="2"/>
<path d="M38.4992 22.8638C38.2232 22.8638 37.9992 22.64 37.9992 22.3638C37.9992 22.0876 38.2232 21.8638 38.4992 21.8638" stroke="black" stroke-width="2"/>
<path d="M38.4992 22.8638C38.7754 22.8638 38.9992 22.64 38.9992 22.3638C38.9992 22.0876 38.7754 21.8638 38.4992 21.8638" stroke="black" stroke-width="2"/>
<path d="M35.4992 26.8638C35.2232 26.8638 34.9992 26.64 34.9992 26.3638C34.9992 26.0876 35.2232 25.8638 35.4992 25.8638" stroke="black" stroke-width="2"/>
<path d="M35.4992 26.8638C35.7754 26.8638 35.9992 26.64 35.9992 26.3638C35.9992 26.0876 35.7754 25.8638 35.4992 25.8638" stroke="black" stroke-width="2"/>
<path d="M19.604 25C19.3279 25 19.104 24.7762 19.104 24.5C19.104 24.2238 19.3279 24 19.604 24" stroke="black" stroke-width="2"/>
<path d="M19.604 25C19.8801 25 20.104 24.7762 20.104 24.5C20.104 24.2238 19.8801 24 19.604 24" stroke="black" stroke-width="2"/>
<path d="M13.604 27C13.3279 27 13.104 26.7762 13.104 26.5C13.104 26.2238 13.3279 26 13.604 26" stroke="black" stroke-width="2"/>
<path d="M13.604 27C13.8801 27 14.104 26.7762 14.104 26.5C14.104 26.2238 13.8801 26 13.604 26" stroke="black" stroke-width="2"/>
</svg>
