<svg width="48" height="48" viewBox="0 0 48 48" fill="none" xmlns="http://www.w3.org/2000/svg">
<g clip-path="url(#clip0_1210_3344)">
<path d="M40 28.278C41.6568 28.278 43 26.935 43 25.278C43 23.6212 41.6568 22.278 40 22.278C38.3432 22.278 37 23.6212 37 25.278C37 26.935 38.3432 28.278 40 28.278Z" stroke="black" stroke-width="2" stroke-linecap="round" stroke-linejoin="round"/>
<path d="M12 30.278C13.1046 30.278 14 29.3826 14 28.278C14 27.1736 13.1046 26.278 12 26.278C10.8954 26.278 10 27.1736 10 28.278C10 29.3826 10.8954 30.278 12 30.278Z" stroke="black" stroke-width="2" stroke-linecap="round" stroke-linejoin="round"/>
<path d="M22 40.278C24.2092 40.278 26 38.4872 26 36.278C26 34.069 24.2092 32.278 22 32.278C19.7909 32.278 18 34.069 18 36.278C18 38.4872 19.7909 40.278 22 40.278Z" stroke="black" stroke-width="2" stroke-linecap="round" stroke-linejoin="round"/>
<path d="M47 16.9861V39.522C46.9996 40.0076 46.8228 40.4764 46.5022 40.8412C46.1818 41.2058 45.7394 41.4414 45.258 41.504L3.258 46.984C2.97588 47.0208 2.68918 46.9968 2.41706 46.914C2.14492 46.831 1.8936 46.691 1.67988 46.5032C1.46617 46.3154 1.29498 46.0842 1.17774 45.825C1.06049 45.5658 0.9999 45.2846 1 45C0.999754 44.5716 1.13125 44.1532 1.37666 43.802C1.62207 43.4506 1.96955 43.1834 2.372 43.036C3.25548 42.714 3.99722 42.0908 4.46698 41.2762C4.93672 40.4616 5.10444 39.5074 4.94068 38.5814C4.77692 37.6554 4.29214 36.8168 3.57148 36.2126C2.85084 35.6086 1.94037 35.2776 1 35.278V23.89C0.999826 23.606 1.0602 23.325 1.17711 23.066C1.29402 22.807 1.46477 22.576 1.678 22.388L25.418 1.49808C25.8036 1.15918 26.305 0.981585 26.818 1.00208C35.708 1.34808 47 7.28408 47 16.9861Z" stroke="black" stroke-width="2" stroke-linecap="round" stroke-linejoin="round"/>
<path d="M47 16.9861L1.23199 22.956" stroke="black" stroke-width="2" stroke-linecap="round" stroke-linejoin="round"/>
<path d="M27 26.778C26.7238 26.778 26.5 26.5542 26.5 26.278C26.5 26.002 26.7238 25.778 27 25.778" stroke="black" stroke-width="2"/>
<path d="M27 26.778C27.2762 26.778 27.5 26.5542 27.5 26.278C27.5 26.002 27.2762 25.778 27 25.778" stroke="black" stroke-width="2"/>
<path d="M36 35.778C35.7238 35.778 35.5 35.5542 35.5 35.278C35.5 35.002 35.7238 34.778 36 34.778" stroke="black" stroke-width="2"/>
<path d="M36 35.778C36.2762 35.778 36.5 35.5542 36.5 35.278C36.5 35.002 36.2762 34.778 36 34.778" stroke="black" stroke-width="2"/>
</g>
<defs>
<clipPath id="clip0_1210_3344">
<rect width="48" height="48" fill="white"/>
</clipPath>
</defs>
</svg>
