<svg width="48" height="48" viewBox="0 0 48 48" fill="none" xmlns="http://www.w3.org/2000/svg">
<path d="M35 11H39C41.1217 11 43.1566 11.8429 44.6569 13.3431C46.1571 14.8434 47 16.8783 47 19C47 21.1217 46.1571 23.1566 44.6569 24.6569C43.1566 26.1571 41.1217 27 39 27H34.88" stroke="black" stroke-width="2" stroke-linecap="round" stroke-linejoin="round"/>
<path d="M1 41H47" stroke="black" stroke-width="2" stroke-linecap="round" stroke-linejoin="round"/>
<path d="M3 25V8C3 7.73478 3.10536 7.48043 3.29289 7.29289C3.48043 7.10536 3.73478 7 4 7H34C34.2652 7 34.5196 7.10536 34.7071 7.29289C34.8946 7.48043 35 7.73478 35 8V25C35 29.2435 33.3143 33.3131 30.3137 36.3137C27.3131 39.3143 23.2435 41 19 41C14.7565 41 10.6869 39.3143 7.68629 36.3137C4.68571 33.3131 3 29.2435 3 25Z" stroke="black" stroke-width="2" stroke-linecap="round" stroke-linejoin="round"/>
</svg>
