<svg width="48" height="48" viewBox="0 0 48 48" fill="none" xmlns="http://www.w3.org/2000/svg">
<path d="M17.8912 16.0337H30.1088" stroke="black" stroke-width="2" stroke-linecap="round" stroke-linejoin="round"/>
<path d="M28.9778 4.69608C28.978 4.85392 28.9406 5.00954 28.869 5.1501C28.7972 5.29066 28.693 5.41214 28.565 5.50454C28.437 5.59692 28.289 5.65754 28.1328 5.68142C27.9768 5.7053 27.8174 5.69174 27.6676 5.64186L25.9912 5.08236L24.446 5.85492C24.3076 5.9243 24.1548 5.96042 24 5.96042C23.8452 5.96042 23.6924 5.9243 23.554 5.85492L22.0088 5.08236L20.3324 5.64186C20.1826 5.69174 20.0232 5.7053 19.8671 5.68142C19.7111 5.65754 19.563 5.59692 19.435 5.50454C19.307 5.41214 19.2029 5.29066 19.1311 5.1501C19.0593 5.00954 19.022 4.85392 19.0222 4.69608V3.09122C19.0222 2.56314 19.232 2.0567 19.6054 1.68329C19.9788 1.30988 20.4852 1.1001 21.0134 1.1001H26.9866C27.5148 1.1001 28.0212 1.30988 28.3946 1.68329C28.768 2.0567 28.9778 2.56314 28.9778 3.09122V4.69608Z" stroke="black" stroke-width="2" stroke-linecap="round" stroke-linejoin="round"/>
<path d="M26.9868 5.41504C27.1182 15.084 32.96 17.1189 32.96 24.9938C32.96 32.9584 29.9734 34.1968 29.9734 39.0532C29.9238 40.7464 30.3944 42.4142 31.3214 43.832C31.515 44.1328 31.6238 44.4804 31.6366 44.838C31.6494 45.1954 31.5656 45.5498 31.3942 45.8638C31.2226 46.1778 30.9696 46.4398 30.6618 46.6222C30.354 46.8046 30.0026 46.9006 29.6448 46.9002H18.3551C17.9973 46.9006 17.6461 46.8046 17.3382 46.6222C17.0304 46.4398 16.7774 46.1778 16.6059 45.8638C16.4343 45.5498 16.3505 45.1954 16.3633 44.838C16.3761 44.4804 16.485 44.1328 16.6786 43.832C17.6059 42.4136 18.0764 40.7452 18.0266 39.0512C18.0266 34.1968 15.0399 32.9584 15.0399 24.9938C15.0399 17.1189 20.8798 15.084 21.0134 5.41504" stroke="black" stroke-width="2" stroke-linecap="round" stroke-linejoin="round"/>
<path d="M21.0134 21.5091C20.7384 21.5091 20.5156 21.2864 20.5156 21.0114C20.5156 20.7366 20.7384 20.5135 21.0134 20.5135" stroke="black" stroke-width="2"/>
<path d="M21.0132 21.5091C21.2882 21.5091 21.511 21.2864 21.511 21.0114C21.511 20.7366 21.2882 20.5135 21.0132 20.5135" stroke="black" stroke-width="2"/>
<path d="M27.4844 23.0024C27.2096 23.0024 26.9868 22.7796 26.9868 22.5046C26.9868 22.2298 27.2096 22.0068 27.4844 22.0068" stroke="black" stroke-width="2"/>
<path d="M27.4844 23.0024C27.7594 23.0024 27.9822 22.7796 27.9822 22.5046C27.9822 22.2298 27.7594 22.0068 27.4844 22.0068" stroke="black" stroke-width="2"/>
<path d="M19.52 27.9803C19.245 27.9803 19.0222 27.7575 19.0222 27.4825C19.0222 27.2077 19.245 26.9847 19.52 26.9847" stroke="black" stroke-width="2"/>
<path d="M19.52 27.9803C19.7949 27.9803 20.0178 27.7575 20.0178 27.4825C20.0178 27.2077 19.7949 26.9847 19.52 26.9847" stroke="black" stroke-width="2"/>
<path d="M27.4844 30.9672C27.2096 30.9672 26.9868 30.7444 26.9868 30.4694C26.9868 30.1946 27.2096 29.9716 27.4844 29.9716" stroke="black" stroke-width="2"/>
<path d="M27.4844 30.9672C27.7594 30.9672 27.9822 30.7444 27.9822 30.4694C27.9822 30.1946 27.7594 29.9716 27.4844 29.9716" stroke="black" stroke-width="2"/>
<path d="M22.5066 34.9492C22.2318 34.9492 22.0088 34.7264 22.0088 34.4514C22.0088 34.1764 22.2318 33.9536 22.5066 33.9536" stroke="black" stroke-width="2"/>
<path d="M22.5066 34.9492C22.7816 34.9492 23.0044 34.7264 23.0044 34.4514C23.0044 34.1764 22.7816 33.9536 22.5066 33.9536" stroke="black" stroke-width="2"/>
<path d="M25.4934 41.9185C25.2184 41.9185 24.9956 41.6957 24.9956 41.4207C24.9956 41.1459 25.2184 40.9229 25.4934 40.9229" stroke="black" stroke-width="2"/>
<path d="M25.4934 41.9185C25.7682 41.9185 25.9912 41.6957 25.9912 41.4207C25.9912 41.1459 25.7682 40.9229 25.4934 40.9229" stroke="black" stroke-width="2"/>
</svg>
