<svg width="48" height="48" viewBox="0 0 48 48" fill="none" xmlns="http://www.w3.org/2000/svg">
<path d="M31.6 23.676L30.758 44.71C30.7389 45.2017 30.5301 45.6669 30.1755 46.0081C29.8209 46.3492 29.3481 46.5399 28.856 46.54H12.518C12.0259 46.5399 11.553 46.3492 11.1984 46.0081C10.8438 45.6669 10.6351 45.2017 10.616 44.71L9.77399 23.676" stroke="black" stroke-width="2" stroke-linecap="round" stroke-linejoin="round"/>
<path d="M20.692 37.012C20.692 37.2645 20.7923 37.5066 20.9708 37.6852C21.1494 37.8637 21.3915 37.964 21.644 37.964C21.8965 37.964 22.1386 37.8637 22.3172 37.6852C22.4957 37.5066 22.596 37.2645 22.596 37.012C22.596 36.7595 22.4957 36.5174 22.3172 36.3388C22.1386 36.1603 21.8965 36.06 21.644 36.06C21.3915 36.06 21.1494 36.1603 20.9708 36.3388C20.7923 36.5174 20.692 36.7595 20.692 37.012Z" stroke="black" stroke-width="2" stroke-linecap="round" stroke-linejoin="round"/>
<path d="M15.928 41.776C15.928 42.0285 16.0283 42.2706 16.2068 42.4491C16.3854 42.6277 16.6275 42.728 16.88 42.728C17.1325 42.728 17.3746 42.6277 17.5532 42.4491C17.7317 42.2706 17.832 42.0285 17.832 41.776C17.832 41.5235 17.7317 41.2813 17.5532 41.1028C17.3746 40.9243 17.1325 40.824 16.88 40.824C16.6275 40.824 16.3854 40.9243 16.2068 41.1028C16.0283 41.2813 15.928 41.5235 15.928 41.776Z" stroke="black" stroke-width="2" stroke-linecap="round" stroke-linejoin="round"/>
<path d="M24.978 40.824C24.978 41.0765 25.0783 41.3186 25.2568 41.4972C25.4354 41.6757 25.6775 41.776 25.93 41.776C26.1825 41.776 26.4246 41.6757 26.6032 41.4972C26.7817 41.3186 26.882 41.0765 26.882 40.824C26.882 40.5715 26.7817 40.3294 26.6032 40.1508C26.4246 39.9723 26.1825 39.872 25.93 39.872C25.6775 39.872 25.4354 39.9723 25.2568 40.1508C25.0783 40.3294 24.978 40.5715 24.978 40.824Z" stroke="black" stroke-width="2" stroke-linecap="round" stroke-linejoin="round"/>
<path d="M8.79999 23.2C8.54458 23.2009 8.29196 23.147 8.05913 23.042C7.8263 22.937 7.61866 22.7834 7.45019 22.5914C7.28173 22.3995 7.15634 22.1736 7.08248 21.9291C7.00861 21.6846 6.98799 21.4272 7.02199 21.174C7.50728 17.8967 9.1543 14.9029 11.6627 12.7385C14.1712 10.5742 17.3739 9.38348 20.687 9.38348C24.0001 9.38348 27.2028 10.5742 29.7112 12.7385C32.2197 14.9029 33.8667 17.8967 34.352 21.174C34.386 21.4272 34.3654 21.6846 34.2915 21.9291C34.2176 22.1736 34.0922 22.3995 33.9238 22.5914C33.7553 22.7834 33.5477 22.937 33.3148 23.042C33.082 23.147 32.8294 23.2009 32.574 23.2H8.79999Z" stroke="black" stroke-width="2" stroke-linecap="round" stroke-linejoin="round"/>
<path d="M10.4 34.856C11.5958 33.4817 13.1558 32.4736 14.9 31.948C17.3498 31.5947 19.8272 31.4715 22.3 31.58C25.221 31.1436 28.0746 30.3371 30.792 29.18" stroke="black" stroke-width="2" stroke-linecap="round" stroke-linejoin="round"/>
<path d="M16.458 31.664L26.358 3.06402C26.5193 2.59722 26.8217 2.19211 27.2234 1.90474C27.6251 1.61737 28.1061 1.46196 28.6 1.46002H39.08C39.5855 1.46002 40.0703 1.66083 40.4278 2.01828C40.7852 2.37572 40.986 2.86052 40.986 3.36602V4.31802C40.986 4.82352 40.7852 5.30832 40.4278 5.66577C40.0703 6.02321 39.5855 6.22402 39.08 6.22402H30.306L21.506 31.624" stroke="black" stroke-width="2" stroke-linecap="round" stroke-linejoin="round"/>
</svg>
