<svg width="48" height="48" viewBox="0 0 48 48" fill="none" xmlns="http://www.w3.org/2000/svg">
<path d="M33.174 18.376C35.308 19.354 38.614 18.128 41.548 17.376C40.7484 18.7578 40.456 20.3752 40.721 21.9495C40.9861 23.5238 41.7921 24.9562 43 26C44.1827 24.854 45.1263 23.4847 45.7761 21.9714C46.4259 20.4581 46.769 18.831 46.7856 17.1842C46.8022 15.5374 46.4918 13.9036 45.8726 12.3776C45.2533 10.8516 44.3374 9.4636 43.178 8.29401C41.9436 7.20412 40.5052 6.36999 38.9462 5.83992C37.3871 5.30985 35.7384 5.09438 34.0955 5.20599C32.4526 5.31761 30.8481 5.75408 29.3751 6.49013C27.902 7.22619 26.5897 8.24719 25.514 9.49401C25.514 9.49401 27.584 13.026 33.884 11.278C34.2613 13.6657 34.0167 16.1103 33.174 18.376Z" stroke="black" stroke-width="2" stroke-linecap="round" stroke-linejoin="round"/>
<path d="M43.192 8.29994L47 4.49194" stroke="black" stroke-width="2" stroke-linecap="round" stroke-linejoin="round"/>
<path d="M27.662 11.2C24.386 15.68 20.564 21.558 9.41201 21.266C1.71401 21.066 -1.52599 31.4479 3.21201 38.2659C12.098 51.0379 33.85 38.138 41.858 24.748" stroke="black" stroke-width="2" stroke-linecap="round" stroke-linejoin="round"/>
<path d="M9 28.52C11.4828 29.0477 14.057 28.9589 16.4976 28.2616C18.9382 27.5643 21.1707 26.2797 23 24.52" stroke="black" stroke-width="2" stroke-linecap="round" stroke-linejoin="round"/>
</svg>
