<svg width="48" height="48" viewBox="0 0 48 48" fill="none" xmlns="http://www.w3.org/2000/svg">
<path d="M1.22601 35.952H46.774" stroke="black" stroke-width="2" stroke-linecap="round" stroke-linejoin="round"/>
<path d="M43.908 35.9521C44.4934 33.0095 44.419 29.9738 43.69 27.0634C42.9611 24.1531 41.5959 21.4407 39.6926 19.1214C37.7893 16.8022 35.3954 14.9339 32.6832 13.6511C29.9711 12.3684 27.0082 11.703 24.008 11.703C21.0078 11.703 18.0449 12.3684 15.3327 13.6511C12.6206 14.9339 10.2267 16.8022 8.32339 19.1214C6.42011 21.4407 5.05485 24.1531 4.32593 27.0634C3.59701 29.9738 3.52257 33.0095 4.10799 35.9521" stroke="black" stroke-width="2" stroke-linecap="round" stroke-linejoin="round"/>
<path d="M20.882 8.58797C20.882 8.99743 20.9626 9.40288 21.1193 9.78118C21.276 10.1595 21.5057 10.5032 21.7952 10.7927C22.0848 11.0823 22.4285 11.3119 22.8068 11.4686C23.1851 11.6253 23.5905 11.706 24 11.706C24.4095 11.706 24.8149 11.6253 25.1932 11.4686C25.5715 11.3119 25.9152 11.0823 26.2047 10.7927C26.4943 10.5032 26.724 10.1595 26.8806 9.78118C27.0373 9.40288 27.118 8.99743 27.118 8.58797C27.118 8.17851 27.0373 7.77306 26.8806 7.39476C26.724 7.01647 26.4943 6.67275 26.2047 6.38321C25.9152 6.09368 25.5715 5.86401 25.1932 5.70731C24.8149 5.55062 24.4095 5.46997 24 5.46997C23.5905 5.46997 23.1851 5.55062 22.8068 5.70731C22.4285 5.86401 22.0848 6.09368 21.7952 6.38321C21.5057 6.67275 21.276 7.01647 21.1193 7.39476C20.9626 7.77306 20.882 8.17851 20.882 8.58797Z" stroke="black" stroke-width="2" stroke-linecap="round" stroke-linejoin="round"/>
<path d="M20.24 21.888C20.0116 21.4981 19.6852 21.1746 19.2931 20.9498C18.901 20.7251 18.4569 20.6068 18.005 20.6068C17.553 20.6068 17.109 20.7251 16.7169 20.9498C16.3248 21.1746 15.9984 21.4981 15.77 21.888" stroke="black" stroke-width="2" stroke-linecap="round" stroke-linejoin="round"/>
<path d="M27.824 21.8879C28.0517 21.4974 28.3778 21.1734 28.7698 20.9482C29.1618 20.723 29.6059 20.6045 30.058 20.6045C30.5101 20.6045 30.9542 20.723 31.3462 20.9482C31.7382 21.1734 32.0643 21.4974 32.292 21.8879" stroke="black" stroke-width="2" stroke-linecap="round" stroke-linejoin="round"/>
<path d="M17.544 26.844C18.1167 28.0826 19.032 29.1314 20.1817 29.8664C21.3314 30.6014 22.6674 30.992 24.032 30.992C25.3966 30.992 26.7327 30.6014 27.8823 29.8664C29.032 29.1314 29.9473 28.0826 30.52 26.844" stroke="black" stroke-width="2" stroke-linecap="round" stroke-linejoin="round"/>
<path d="M43.8 35.952L41.778 41.244C41.6334 41.6223 41.3775 41.9478 41.0439 42.1774C40.7104 42.407 40.315 42.53 39.91 42.53H8.15201C7.74672 42.5304 7.35088 42.4076 7.01694 42.178C6.68299 41.9483 6.4267 41.6226 6.28201 41.244L4.26001 35.952" stroke="black" stroke-width="2" stroke-linecap="round" stroke-linejoin="round"/>
</svg>
