<svg width="48" height="48" viewBox="0 0 48 48" fill="none" xmlns="http://www.w3.org/2000/svg">
<g clip-path="url(#clip0_1210_3197)">
<path d="M28.3 43.818C28.8832 42.8483 29.0574 41.6867 28.7844 40.5886C28.5114 39.4905 27.8134 38.5457 26.844 37.962L23.868 36.162C24.9 35.2487 25.948 34.26 27.012 33.196C29.526 30.682 32.012 28.196 34.152 25.732L42.552 26.096C43.1194 26.1206 43.686 26.0317 44.2186 25.8344C44.7512 25.6371 45.239 25.3355 45.6534 24.9472C46.0679 24.5589 46.4006 24.0917 46.6322 23.5731C46.8637 23.0545 46.9893 22.4949 47.0017 21.9271C47.0141 21.3593 46.913 20.7947 46.7043 20.2665C46.4956 19.7383 46.1835 19.2571 45.7864 18.8511C45.3893 18.4451 44.9151 18.1224 44.3916 17.9021C43.8681 17.6818 43.306 17.5682 42.738 17.568H39.538C40.3195 15.791 40.514 13.8111 40.0932 11.916C39.6723 10.0209 38.6582 8.30931 37.198 7.03005C31.04 0.892047 24.334 4.75605 17.366 11.068L16.4 6.51205C16.2458 5.79036 15.9492 5.10669 15.5275 4.50106C15.1058 3.89544 14.5675 3.38003 13.9442 2.98501C13.3208 2.58999 12.6249 2.32331 11.8972 2.20057C11.1695 2.07782 10.4247 2.1015 9.70622 2.2702C8.98779 2.43889 8.31023 2.74923 7.71322 3.18303C7.11621 3.61683 6.61174 4.16538 6.22935 4.79656C5.84697 5.42774 5.59435 6.12887 5.48628 6.85889C5.37822 7.58891 5.41689 8.33316 5.60002 9.04805L8.41602 19.956C1.11602 28.068 -1.47998 35.242 3.75402 40.474C7.25802 43.978 11.634 43.97 16.578 41.392L22.288 45.174C22.768 45.4922 23.3075 45.7099 23.8738 45.814C24.4402 45.9181 25.0218 45.9064 25.5835 45.7797C26.1453 45.653 26.6756 45.4139 27.1424 45.0767C27.6093 44.7396 28.0031 44.3114 28.3 43.818Z" stroke="black" stroke-width="2" stroke-linecap="round" stroke-linejoin="round"/>
<path d="M37.21 25.874C37.21 25.874 36.084 23.074 37.662 21.486" stroke="black" stroke-width="2" stroke-linecap="round" stroke-linejoin="round"/>
<path d="M6.29797 11.7421C7.3661 12.1725 8.53351 12.2947 9.66764 12.095C10.8018 11.8952 11.8572 11.3815 12.714 10.6121" stroke="black" stroke-width="2" stroke-linecap="round" stroke-linejoin="round"/>
<path d="M29.268 30.9401C24.038 28.5997 19.7596 24.5499 17.136 19.4561" stroke="black" stroke-width="2" stroke-linecap="round" stroke-linejoin="round"/>
<path d="M24.252 5.84595C25.2083 8.88785 26.9748 11.612 29.362 13.7259" stroke="black" stroke-width="2" stroke-linecap="round" stroke-linejoin="round"/>
<path d="M3.31 26.8C3.31 26.8 6.71 34.8461 11.422 36.4561" stroke="black" stroke-width="2" stroke-linecap="round" stroke-linejoin="round"/>
</g>
<defs>
<clipPath id="clip0_1210_3197">
<rect width="48" height="48" fill="white"/>
</clipPath>
</defs>
</svg>
