<svg width="48" height="48" viewBox="0 0 48 48" fill="none" xmlns="http://www.w3.org/2000/svg">
<g clip-path="url(#clip0_1210_3141)">
<path d="M25.714 12.34L43.228 3.92603" stroke="black" stroke-width="2" stroke-linecap="round" stroke-linejoin="round"/>
<path d="M21.164 7.94998C21.634 7.70457 22.1822 7.65582 22.6881 7.81446C23.1941 7.9731 23.6163 8.32614 23.862 8.79598L27.568 15.884C27.6897 16.1168 27.7644 16.3713 27.7878 16.633C27.8112 16.8947 27.7827 17.1585 27.7042 17.4092C27.6256 17.6599 27.4985 17.8927 27.3299 18.0943C27.1614 18.2958 26.9548 18.4622 26.722 18.584C26.4892 18.7057 26.2346 18.7804 25.9729 18.8038C25.7112 18.8271 25.4475 18.7987 25.1968 18.7202C24.9461 18.6416 24.7133 18.5144 24.5117 18.3459C24.3101 18.1774 24.1437 17.9708 24.022 17.738L20.318 10.648C20.0726 10.178 20.0238 9.62978 20.1825 9.12385C20.3411 8.61793 20.6942 8.1957 21.164 7.94998Z" stroke="black" stroke-width="2" stroke-linecap="round" stroke-linejoin="round"/>
<path d="M16 19.694L13.228 14.354C13.1022 14.1209 13.0239 13.8652 12.9977 13.6017C12.9715 13.3381 12.9979 13.072 13.0753 12.8187C13.1528 12.5654 13.2798 12.3301 13.449 12.1263C13.6181 11.9225 13.8261 11.7544 14.0608 11.6316C14.2955 11.5088 14.5522 11.4339 14.816 11.4111C15.0799 11.3884 15.3457 11.4183 15.5979 11.4991C15.8501 11.5798 16.0838 11.7099 16.2854 11.8817C16.4869 12.0536 16.6523 12.2637 16.772 12.5L20 18.694" stroke="black" stroke-width="2" stroke-linecap="round" stroke-linejoin="round"/>
<path d="M20 18.694L15.844 10.728C15.5984 10.2564 15.5502 9.70663 15.71 9.19953C15.8698 8.69244 16.2244 8.26958 16.696 8.02399C17.1676 7.7784 17.7174 7.73019 18.2245 7.88997C18.7316 8.04975 19.1544 8.40443 19.4 8.87599L24.032 17.738" stroke="black" stroke-width="2" stroke-linecap="round" stroke-linejoin="round"/>
<path d="M44.074 1.22602C44.4245 1.0429 44.8215 0.967819 45.2147 1.01028C45.608 1.05274 45.9798 1.21083 46.2831 1.46456C46.5865 1.7183 46.8079 2.05629 46.9192 2.4358C47.0305 2.81531 47.0268 3.21931 46.9085 3.59672C46.7903 3.97413 46.5628 4.308 46.2548 4.55613C45.9468 4.80427 45.5722 4.95552 45.1783 4.99076C44.7843 5.02601 44.3888 4.94367 44.0417 4.75415C43.6945 4.56463 43.4114 4.27644 43.228 3.92602C43.1062 3.69321 43.0314 3.43867 43.008 3.17695C42.9846 2.91523 43.013 2.65146 43.0915 2.40072C43.1701 2.14998 43.2973 1.91717 43.4659 1.71561C43.6345 1.51405 43.8411 1.34769 44.074 1.22602Z" stroke="black" stroke-width="2" stroke-linecap="round" stroke-linejoin="round"/>
<path d="M3 31H31C31 31 33 31 33 33V35C33 35 33 37 31 37H3C3 37 1 37 1 35V33C1 33 1 31 3 31Z" stroke="black" stroke-width="2" stroke-linecap="round" stroke-linejoin="round"/>
<path d="M5 37C5 39.6522 6.05357 42.1957 7.92893 44.0711C9.8043 45.9464 12.3478 47 15 47H19C20.3132 47 21.6136 46.7413 22.8268 46.2388C24.0401 45.7362 25.1425 44.9997 26.0711 44.0711C26.9997 43.1425 27.7362 42.0401 28.2388 40.8268C28.7413 39.6136 29 38.3132 29 37" stroke="black" stroke-width="2" stroke-linecap="round" stroke-linejoin="round"/>
<path d="M25 22V23.692C25 24.2224 24.7893 24.7311 24.4142 25.1062C24.0391 25.4813 23.5304 25.692 23 25.692C21.896 25.692 21 24.106 21 23C21 24.0609 20.5786 25.0783 19.8284 25.8284C19.0783 26.5786 18.0609 27 17 27C15.9391 27 14.9217 26.5786 14.1716 25.8284C13.4214 25.0783 13 24.0609 13 23V22" stroke="black" stroke-width="2" stroke-linecap="round" stroke-linejoin="round"/>
</g>
<defs>
<clipPath id="clip0_1210_3141">
<rect width="48" height="48" fill="white"/>
</clipPath>
</defs>
</svg>
