<svg width="48" height="48" viewBox="0 0 48 48" fill="none" xmlns="http://www.w3.org/2000/svg">
<g clip-path="url(#clip0_1210_3371)">
<path d="M27 44C27 44.7956 26.6839 45.5587 26.1213 46.1213C25.5587 46.6839 24.7956 47 24 47C23.2044 47 22.4413 46.6839 21.8787 46.1213C21.3161 45.5587 21 44.7956 21 44V33H27V44Z" stroke="black" stroke-width="2" stroke-linecap="round" stroke-linejoin="round"/>
<path d="M34 13C32.1435 13 30.363 12.2625 29.0503 10.9498C27.7375 9.63703 27 7.85655 27 6.00003C26.9995 4.9123 27.2579 3.84007 27.754 2.87203C27.8206 2.74176 27.8578 2.59847 27.8629 2.45226C27.8681 2.30605 27.8411 2.16049 27.7839 2.02584C27.7267 1.8912 27.6406 1.77074 27.5318 1.67298C27.423 1.57522 27.294 1.50253 27.154 1.46004C25.5116 0.968478 23.7771 0.86761 22.0888 1.16548C20.4005 1.46335 18.8052 2.15171 17.4302 3.17563C16.0551 4.19955 14.9385 5.53069 14.1693 7.06282C13.4001 8.59496 12.9997 10.2857 13 12V31C13 31.5305 13.2107 32.0392 13.5858 32.4142C13.9609 32.7893 14.4696 33 15 33H33C33.5304 33 34.0391 32.7893 34.4142 32.4142C34.7893 32.0392 35 31.5305 35 31V14C35 13.7348 34.8946 13.4805 34.7071 13.2929C34.5196 13.1054 34.2652 13 34 13Z" stroke="black" stroke-width="2" stroke-linecap="round" stroke-linejoin="round"/>
</g>
<defs>
<clipPath id="clip0_1210_3371">
<rect width="48" height="48" fill="white"/>
</clipPath>
</defs>
</svg>
