<svg width="48" height="48" viewBox="0 0 48 48" fill="none" xmlns="http://www.w3.org/2000/svg">
<g clip-path="url(#clip0_1210_3304)">
<path d="M47 15.036C47 7.30401 36.702 1.03601 24 1.03601C11.298 1.03601 1 7.30401 1 15.036C1 15.2987 1.05173 15.5587 1.15224 15.8014C1.25275 16.044 1.40007 16.2645 1.58579 16.4502C1.7715 16.6359 1.99198 16.7833 2.23463 16.8838C2.47728 16.9843 2.73736 17.036 3 17.036H45C45.5304 17.036 46.0391 16.8253 46.4142 16.4502C46.7893 16.0752 47 15.5664 47 15.036Z" stroke="black" stroke-width="2" stroke-linecap="round" stroke-linejoin="round"/>
<path d="M27 17.036C27 17.036 30.162 38.216 25.964 44.386C22.026 50.17 12.364 45.346 17.584 38.536C20.626 34.568 21 17.036 21 17.036" stroke="black" stroke-width="2" stroke-linecap="round" stroke-linejoin="round"/>
</g>
<defs>
<clipPath id="clip0_1210_3304">
<rect width="48" height="48" fill="white"/>
</clipPath>
</defs>
</svg>
