<svg width="48" height="48" viewBox="0 0 48 48" fill="none" xmlns="http://www.w3.org/2000/svg">
<g clip-path="url(#clip0_1210_3124)">
<path d="M5.53602 31.8C4.1069 30.5562 2.96228 29.0193 2.17993 27.2938C1.39759 25.5683 0.99585 23.6945 1.00202 21.8C1.11458 17.0418 2.76204 12.4474 5.69875 8.70195C8.63545 4.95646 12.7041 2.26047 17.298 1.01597C17.3954 0.989538 17.4988 0.996573 17.5916 1.03595C17.6845 1.07532 17.7614 1.14476 17.8101 1.2331C17.8588 1.32145 17.8764 1.42359 17.86 1.52312C17.8437 1.62266 17.7944 1.71382 17.72 1.78197C16.7736 2.59425 16.0009 3.58911 15.4479 4.707C14.895 5.82489 14.5733 7.04285 14.502 8.28797C14.5005 9.55105 14.7567 10.8012 15.255 11.9618C15.7533 13.1224 16.4832 14.1692 17.4 15.038C18.822 13.6112 19.7954 11.7993 20.2 9.82597C20.2142 9.75777 20.244 9.6938 20.2872 9.63915C20.3304 9.58451 20.3858 9.54069 20.4489 9.51118C20.512 9.48167 20.5811 9.46728 20.6507 9.46915C20.7204 9.47103 20.7886 9.48911 20.85 9.52197C23.0304 10.7396 24.844 12.5201 26.1017 14.6776C27.3593 16.8352 28.0149 19.2907 28 21.788C28.0014 23.0227 27.8318 24.2517 27.496 25.44" stroke="black" stroke-width="2" stroke-linecap="round" stroke-linejoin="round"/>
<path d="M17.462 27.946C18.213 27.0832 18.6991 26.0221 18.862 24.89C17.0722 24.8754 15.3599 24.1582 14.0939 22.8929C12.8279 21.6277 12.1097 19.9157 12.094 18.126C10.8973 18.2954 9.78008 18.8238 8.88996 19.6414C7.99984 20.4591 7.37866 21.5275 7.10846 22.7055C6.83827 23.8836 6.93177 25.1159 7.37661 26.2397C7.82145 27.3635 8.59671 28.326 9.60001 29" stroke="black" stroke-width="2" stroke-linecap="round" stroke-linejoin="round"/>
<path d="M9 35.8C9 38.2 14.6 47 26.6 47C41.8 47 49.358 30.544 43.4 26.2C34.6 19.8 32.7 29.578 25 32.6C17.3 35.622 9 32.228 9 35.8Z" stroke="black" stroke-width="2" stroke-linecap="round" stroke-linejoin="round"/>
<path d="M40.154 24.44C40.934 23.424 43.46 21.402 41.736 19.504C41.3109 19.1834 41.0186 18.7176 40.9146 18.1954C40.8106 17.6732 40.9022 17.131 41.172 16.672C41.2683 16.4853 41.4008 16.3196 41.5618 16.1845C41.7227 16.0494 41.9089 15.9477 42.1095 15.8851C42.3101 15.8226 42.5211 15.8006 42.7303 15.8203C42.9394 15.84 43.1426 15.9011 43.328 16C44.5769 16.6009 45.602 17.5839 46.2546 18.8066C46.9073 20.0292 47.1537 21.4279 46.958 22.8C46.6013 24.5499 45.7775 26.1706 44.574 27.49" stroke="black" stroke-width="2" stroke-miterlimit="10" stroke-linecap="round"/>
<path d="M25.8 40.6C29.8 41.4 33.43 41.46 38.6 35" stroke="black" stroke-width="2" stroke-linecap="round" stroke-linejoin="round"/>
</g>
<defs>
<clipPath id="clip0_1210_3124">
<rect width="48" height="48" fill="white"/>
</clipPath>
</defs>
</svg>
