<svg width="48" height="48" viewBox="0 0 48 48" fill="none" xmlns="http://www.w3.org/2000/svg">
<path d="M7 34C7 38.418 10.582 41 15 41H33C37.418 41 41 38.418 41 34" stroke="black" stroke-width="2" stroke-linecap="round" stroke-linejoin="round"/>
<path d="M24 23C27.6574 22.9953 31.2774 23.7364 34.6387 25.1779C38.0001 26.6194 41.0323 28.7311 43.55 31.384C43.8251 31.6736 44.1807 31.8742 44.5708 31.9599C44.961 32.0456 45.3679 32.0125 45.7391 31.8649C46.1103 31.7173 46.4287 31.4619 46.6535 31.1317C46.8782 30.8014 46.9989 30.4114 47 30.012C47 26.9916 46.4051 24.0007 45.2492 21.2102C44.0934 18.4198 42.3992 15.8843 40.2635 13.7485C38.1277 11.6128 35.5922 9.91859 32.8017 8.76273C30.0112 7.60688 27.0204 7.01196 24 7.01196C20.9796 7.01196 17.9888 7.60688 15.1983 8.76273C12.4078 9.91859 9.87229 11.6128 7.73654 13.7485C5.6008 15.8843 3.90663 18.4198 2.75077 21.2102C1.59491 24.0007 1 26.9916 1 30.012C1.0011 30.4114 1.12179 30.8014 1.34652 31.1317C1.57126 31.4619 1.88974 31.7173 2.26093 31.8649C2.63212 32.0125 3.039 32.0456 3.42916 31.9599C3.81932 31.8742 4.17487 31.6736 4.45 31.384C6.96775 28.7311 9.99992 26.6194 13.3613 25.1779C16.7226 23.7364 20.3426 22.9953 24 23Z" stroke="black" stroke-width="2" stroke-linecap="round" stroke-linejoin="round"/>
<path d="M8.61804 27.81L18.056 7.77197" stroke="black" stroke-width="2" stroke-linecap="round" stroke-linejoin="round"/>
<path d="M22.872 23.024L30.044 7.79797" stroke="black" stroke-width="2" stroke-linecap="round" stroke-linejoin="round"/>
<path d="M33.984 24.908L39.568 13.052" stroke="black" stroke-width="2" stroke-linecap="round" stroke-linejoin="round"/>
</svg>
