<svg width="48" height="48" viewBox="0 0 48 48" fill="none" xmlns="http://www.w3.org/2000/svg">
<path d="M20.5604 40.7378L15.5019 45.7762C15.1289 46.1634 14.6817 46.4712 14.187 46.6814C13.6923 46.8916 13.1603 47 12.6227 47C12.0852 47 11.5532 46.8916 11.0585 46.6814C10.5638 46.4712 10.1166 46.1634 9.74356 45.7762C8.22286 44.3728 6.9399 42.732 5.94464 40.9176" stroke="black" stroke-width="2" stroke-linecap="round" stroke-linejoin="round"/>
<path d="M32.877 6.0876C32.8748 5.07116 32.5688 4.07858 31.9984 3.23728C31.428 2.396 30.6192 1.74439 29.6756 1.36615C28.7322 0.987916 27.6972 0.900304 26.7036 1.11456C25.71 1.32883 24.8032 1.83518 24.0994 2.56862C23.3506 2.06754 22.4818 1.77476 21.5824 1.7203C20.683 1.66584 19.7852 1.85166 18.9813 2.2587C18.1774 2.66574 17.4963 3.27934 17.0078 4.03654C16.5194 4.79372 16.2412 5.66726 16.2017 6.56748C15.2608 6.13662 14.2106 6.00352 13.1919 6.186C12.1732 6.3685 11.2346 6.85786 10.5017 7.58856C9.76883 8.31928 9.27669 9.25646 9.09117 10.2746C8.90565 11.2928 9.03563 12.3433 9.46369 13.2855C8.20755 13.3384 7.01657 13.8591 6.12465 14.7451C5.27661 15.5947 4.75551 16.7162 4.65311 17.9122C4.55069 19.1081 4.87355 20.302 5.56481 21.2832C4.82257 21.7518 4.21501 22.4054 3.80187 23.1798C3.38873 23.9542 3.18421 24.823 3.20841 25.7004C3.23261 26.5778 3.48471 27.4338 3.93993 28.1842C4.39513 28.9348 5.03779 29.5538 5.80473 29.9808C5.45045 30.7686 5.30299 31.6338 5.37629 32.4946C5.44959 33.3552 5.74123 34.183 6.22363 34.8996C6.70603 35.6162 7.36324 36.198 8.13312 36.5898C8.903 36.9816 9.76008 37.1704 10.6233 37.1388C10.3722 38.0198 10.3622 38.9522 10.5944 39.8384C10.8265 40.7246 11.2922 41.5324 11.943 42.1772" stroke="black" stroke-width="2" stroke-linecap="round" stroke-linejoin="round"/>
<path d="M16.9615 37.1188C15.1891 35.334 13.8021 33.2044 12.8862 30.862C11.9703 28.5194 11.5452 26.0136 11.637 23.5002C11.7288 20.9866 12.3358 18.5186 13.4202 16.2492C14.5046 13.9797 16.0433 11.957 17.9412 10.3064C21.574 7.2601 26.2236 5.69918 30.9586 5.93648C35.6936 6.17378 40.164 8.19178 43.474 11.5861C44.3148 12.4228 44.7894 13.5589 44.7936 14.7452C44.7928 15.3537 44.6662 15.9555 44.422 16.5129C44.1776 17.0703 43.8208 17.5712 43.374 17.9842L20.5604 40.7378L16.9615 37.1188Z" stroke="black" stroke-width="2" stroke-linecap="round" stroke-linejoin="round"/>
<path d="M20.5606 15.985C20.2844 15.985 20.0606 15.7612 20.0606 15.485C20.0606 15.2089 20.2844 14.985 20.5606 14.985" stroke="black" stroke-width="2"/>
<path d="M20.5604 15.985C20.8364 15.985 21.0604 15.7612 21.0604 15.485C21.0604 15.2089 20.8364 14.985 20.5604 14.985" stroke="black" stroke-width="2"/>
<path d="M28.5984 15.985C28.3222 15.985 28.0984 15.7612 28.0984 15.485C28.0984 15.2089 28.3222 14.985 28.5984 14.985" stroke="black" stroke-width="2"/>
<path d="M28.598 15.985C28.8742 15.985 29.098 15.7612 29.098 15.485C29.098 15.2089 28.8742 14.985 28.598 14.985" stroke="black" stroke-width="2"/>
<path d="M24.5994 19.9839C24.3234 19.9839 24.0994 19.7601 24.0994 19.4839C24.0994 19.2078 24.3234 18.9839 24.5994 18.9839" stroke="black" stroke-width="2"/>
<path d="M24.5992 19.9839C24.8754 19.9839 25.0992 19.7601 25.0992 19.4839C25.0992 19.2078 24.8754 18.9839 24.5992 18.9839" stroke="black" stroke-width="2"/>
<path d="M20.5606 23.9828C20.2844 23.9828 20.0606 23.759 20.0606 23.4828C20.0606 23.2066 20.2844 22.9828 20.5606 22.9828" stroke="black" stroke-width="2"/>
<path d="M20.5604 23.9828C20.8364 23.9828 21.0604 23.759 21.0604 23.4828C21.0604 23.2066 20.8364 22.9828 20.5604 22.9828" stroke="black" stroke-width="2"/>
<path d="M20.6006 31.9804C20.3244 31.9804 20.1006 31.7566 20.1006 31.4804C20.1006 31.2044 20.3244 30.9804 20.6006 30.9804" stroke="black" stroke-width="2"/>
<path d="M20.6004 31.9804C20.8764 31.9804 21.1004 31.7566 21.1004 31.4804C21.1004 31.2044 20.8764 30.9804 20.6004 30.9804" stroke="black" stroke-width="2"/>
<path d="M24.5994 27.9816C24.3234 27.9816 24.0994 27.7578 24.0994 27.4816C24.0994 27.2054 24.3234 26.9816 24.5994 26.9816" stroke="black" stroke-width="2"/>
<path d="M24.5992 27.9816C24.8754 27.9816 25.0992 27.7578 25.0992 27.4816C25.0992 27.2054 24.8754 26.9816 24.5992 26.9816" stroke="black" stroke-width="2"/>
<path d="M28.5984 23.9828C28.3222 23.9828 28.0984 23.759 28.0984 23.4828C28.0984 23.2066 28.3222 22.9828 28.5984 22.9828" stroke="black" stroke-width="2"/>
<path d="M28.598 23.9828C28.8742 23.9828 29.098 23.759 29.098 23.4828C29.098 23.2066 28.8742 22.9828 28.598 22.9828" stroke="black" stroke-width="2"/>
<path d="M32.5972 19.9839C32.321 19.9839 32.0972 19.7601 32.0972 19.4839C32.0972 19.2078 32.321 18.9839 32.5972 18.9839" stroke="black" stroke-width="2"/>
<path d="M32.5968 19.9839C32.873 19.9839 33.0968 19.7601 33.0968 19.4839C33.0968 19.2078 32.873 18.9839 32.5968 18.9839" stroke="black" stroke-width="2"/>
<path d="M36.596 15.985C36.3198 15.985 36.096 15.7612 36.096 15.485C36.096 15.2089 36.3198 14.985 36.596 14.985" stroke="black" stroke-width="2"/>
<path d="M36.5958 15.985C36.8718 15.985 37.0958 15.7612 37.0958 15.485C37.0958 15.2089 36.8718 14.985 36.5958 14.985" stroke="black" stroke-width="2"/>
</svg>
