<svg width="48" height="48" viewBox="0 0 48 48" fill="none" xmlns="http://www.w3.org/2000/svg">
<g clip-path="url(#clip0_1210_3215)">
<path d="M34.248 4.80001C43.9 14.45 42.494 27.4 34.948 34.952C27.402 42.504 14.466 43.922 4.80001 34.248L1.29001 37.756C1.10678 37.9429 1.00415 38.1943 1.00415 38.456C1.00415 38.7178 1.10678 38.9691 1.29001 39.156C3.76981 41.6718 6.72291 43.672 9.97916 45.0415C13.2354 46.4109 16.7305 47.1225 20.263 47.1352C23.7954 47.1479 27.2955 46.4615 30.5616 45.1156C33.8276 43.7696 36.795 41.7907 39.2929 39.2929C41.7907 36.795 43.7696 33.8276 45.1156 30.5616C46.4615 27.2955 47.1479 23.7954 47.1352 20.263C47.1225 16.7305 46.4109 13.2354 45.0415 9.97916C43.672 6.72291 41.6718 3.76981 39.156 1.29001C38.9691 1.10678 38.7178 1.00415 38.456 1.00415C38.1943 1.00415 37.9429 1.10678 37.756 1.29001L34.248 4.80001Z" stroke="black" stroke-width="2" stroke-linecap="round" stroke-linejoin="round"/>
<path d="M4.79602 34.248L34.248 4.79797" stroke="black" stroke-width="2" stroke-linecap="round" stroke-linejoin="round"/>
<path d="M27.938 25.132C29.1 26.292 29.414 27.864 28.638 28.638C27.862 29.412 26.294 29.098 25.132 27.938C23.97 26.778 23.656 25.206 24.43 24.432C25.204 23.658 26.776 23.97 27.938 25.132Z" stroke="black" stroke-width="2" stroke-linecap="round" stroke-linejoin="round"/>
<path d="M29.17 15.316C29.17 15.8416 29.4835 16.3458 30.0416 16.7175C30.5997 17.0892 31.3567 17.298 32.146 17.298C32.9353 17.298 33.6922 17.0892 34.2503 16.7175C34.8084 16.3458 35.122 15.8416 35.122 15.316C35.122 14.7903 34.8084 14.2862 34.2503 13.9145C33.6922 13.5428 32.9353 13.334 32.146 13.334C31.3567 13.334 30.5997 13.5428 30.0416 13.9145C29.4835 14.2862 29.17 14.7903 29.17 15.316Z" stroke="black" stroke-width="2" stroke-linecap="round" stroke-linejoin="round"/>
<path d="M17.298 32.144C17.298 33.79 16.41 35.12 15.316 35.12C14.222 35.12 13.332 33.79 13.332 32.144C13.332 30.498 14.22 29.17 15.316 29.17C16.412 29.17 17.298 30.502 17.298 32.144Z" stroke="black" stroke-width="2" stroke-linecap="round" stroke-linejoin="round"/>
</g>
<defs>
<clipPath id="clip0_1210_3215">
<rect width="48" height="48" fill="white"/>
</clipPath>
</defs>
</svg>
