<svg width="48" height="48" viewBox="0 0 48 48" fill="none" xmlns="http://www.w3.org/2000/svg">
<g clip-path="url(#clip0_1210_3374)">
<path d="M35 1V47" stroke="black" stroke-width="2" stroke-linecap="round" stroke-linejoin="round"/>
<path d="M35 13C35 9.8174 36.2643 6.76516 38.5147 4.51472C40.7652 2.26428 43.8174 1 47 1C47 4.1826 45.7357 7.23484 43.4853 9.48528C41.2348 11.7357 38.1826 13 35 13Z" stroke="black" stroke-width="2" stroke-linecap="round" stroke-linejoin="round"/>
<path d="M35 26C35 22.8174 36.2643 19.7652 38.5147 17.5147C40.7652 15.2643 43.8174 14 47 14C47 17.1826 45.7357 20.2348 43.4853 22.4853C41.2348 24.7357 38.1826 26 35 26Z" stroke="black" stroke-width="2" stroke-linecap="round" stroke-linejoin="round"/>
<path d="M35 39C35 35.8174 36.2643 32.7652 38.5147 30.5147C40.7652 28.2643 43.8174 27 47 27C47 30.1826 45.7357 33.2348 43.4853 35.4853C41.2348 37.7357 38.1826 39 35 39Z" stroke="black" stroke-width="2" stroke-linecap="round" stroke-linejoin="round"/>
<path d="M35 13C35 9.8174 36.2643 6.76516 38.5147 4.51472C40.7652 2.26428 43.8174 1 47 1C47 4.1826 45.7357 7.23484 43.4853 9.48528C41.2348 11.7357 38.1826 13 35 13Z" stroke="black" stroke-width="2" stroke-linecap="round" stroke-linejoin="round"/>
<path d="M35 26C35 22.8174 36.2643 19.7652 38.5147 17.5147C40.7652 15.2643 43.8174 14 47 14C47 17.1826 45.7357 20.2348 43.4853 22.4853C41.2348 24.7357 38.1826 26 35 26Z" stroke="black" stroke-width="2" stroke-linecap="round" stroke-linejoin="round"/>
<path d="M35 39C35 35.8174 36.2643 32.7652 38.5147 30.5147C40.7652 28.2643 43.8174 27 47 27C47 30.1826 45.7357 33.2348 43.4853 35.4853C41.2348 37.7357 38.1826 39 35 39Z" stroke="black" stroke-width="2" stroke-linecap="round" stroke-linejoin="round"/>
<path d="M35 13C35 9.8174 33.7357 6.76516 31.4853 4.51472C29.2348 2.26428 26.1826 1 23 1C23 4.1826 24.2643 7.23484 26.5147 9.48528C28.7652 11.7357 31.8174 13 35 13Z" stroke="black" stroke-width="2" stroke-linecap="round" stroke-linejoin="round"/>
<path d="M35 26C35 22.8174 33.7357 19.7652 31.4853 17.5147C29.2348 15.2643 26.1826 14 23 14C23 17.1826 24.2643 20.2348 26.5147 22.4853C28.7652 24.7357 31.8174 26 35 26Z" stroke="black" stroke-width="2" stroke-linecap="round" stroke-linejoin="round"/>
<path d="M35 39C35 35.8174 33.7357 32.7652 31.4853 30.5147C29.2348 28.2643 26.1826 27 23 27C23 30.1826 24.2643 33.2348 26.5147 35.4853C28.7652 37.7357 31.8174 39 35 39Z" stroke="black" stroke-width="2" stroke-linecap="round" stroke-linejoin="round"/>
<path d="M13 1V47" stroke="black" stroke-width="2" stroke-linecap="round" stroke-linejoin="round"/>
<path d="M21 35.944C18.8023 37.9157 15.9526 39.0042 13 39C12.9987 36.8922 13.5525 34.8213 14.6058 32.9956C15.6591 31.1699 17.1746 29.6538 19 28.6" stroke="black" stroke-width="2" stroke-linecap="round" stroke-linejoin="round"/>
<path d="M21 22.944C18.8023 24.9157 15.9526 26.0042 13 26C12.9987 23.8922 13.5525 21.8213 14.6058 19.9956C15.6591 18.1699 17.1746 16.6538 19 15.6" stroke="black" stroke-width="2" stroke-linecap="round" stroke-linejoin="round"/>
<path d="M21 9.94398C18.8023 11.9157 15.9526 13.0042 13 13C12.9987 10.8922 13.5525 8.82131 14.6058 6.99561C15.6591 5.16991 17.1746 3.65385 19 2.59998" stroke="black" stroke-width="2" stroke-linecap="round" stroke-linejoin="round"/>
<path d="M13 13C13 9.8174 11.7357 6.76516 9.48528 4.51472C7.23484 2.26428 4.1826 1 1 1C1 4.1826 2.26428 7.23484 4.51472 9.48528C6.76516 11.7357 9.8174 13 13 13Z" stroke="black" stroke-width="2" stroke-linecap="round" stroke-linejoin="round"/>
<path d="M13 26C13 22.8174 11.7357 19.7652 9.48528 17.5147C7.23484 15.2643 4.1826 14 1 14C1 17.1826 2.26428 20.2348 4.51472 22.4853C6.76516 24.7357 9.8174 26 13 26Z" stroke="black" stroke-width="2" stroke-linecap="round" stroke-linejoin="round"/>
<path d="M13 39C13 35.8174 11.7357 32.7652 9.48528 30.5147C7.23484 28.2643 4.1826 27 1 27C1 30.1826 2.26428 33.2348 4.51472 35.4853C6.76516 37.7357 9.8174 39 13 39Z" stroke="black" stroke-width="2" stroke-linecap="round" stroke-linejoin="round"/>
</g>
<defs>
<clipPath id="clip0_1210_3374">
<rect width="48" height="48" fill="white"/>
</clipPath>
</defs>
</svg>
